# xmcd
#
# Track frame offsets:
#   150
#   19349
#   34439
#   52387
#   71861
#   90914
#   112469
#   125922
#   162803
#   174526
#   188095
#   210503
#   227358
#   247691
#   263090
#   284108
#   309470
#   319432
#   333015
#
# Disc length: 4681 seconds
#
# Revision: 0
# Processed by: cddbd v1.5.1PL0 Copyright (c) Steve Scherf et al.
# Submitted via: Media_Universe 3.0
#
DISCID=1e124713
DTITLE=Tim McGraw - Tim Mixed
DYEAR=1900
DGENRE=Country
TTITLE0=Real Good Man
TTITLE1=Dear Santa
TTITLE2=Bring On The Rain
TTITLE3=Dale Earnheart Tribute(please remember me)
TTITLE4=Over And Over Again
TTITLE5=Just To Be Your Tear
TTITLE6=40 Days And 40 Nights
TTITLE7=Mixed Songs Live
TTITLE8=Daniel
TTITLE9=Dont Mention Memphis
TTITLE10=Home
TTITLE11=How Bad Do You Want It
TTITLE12=Let Me Love You 
TTITLE13=Memory Lane
TTITLE14=Sing Me Home
TTITLE15=The Joker
TTITLE16=Nobody Knows
TTITLE17=Renegade
TTITLE18=Sell A Lot Of Beer
EXTD=
EXTT0=
EXTT1=
EXTT2=
EXTT3=
EXTT4=
EXTT5=
EXTT6=
EXTT7=
EXTT8=
EXTT9=
EXTT10=
EXTT11=
EXTT12=
EXTT13=
EXTT14=
EXTT15=
EXTT16=
EXTT17=
EXTT18=
PLAYORDER=
